<svg width="40" height="40" viewBox="0 0 40 40" fill="none" xmlns="http://www.w3.org/2000/svg">
<path d="M9.28906 0.200195C14.3104 0.200195 18.3789 4.23938 18.3789 9.21875C18.3788 14.198 14.3103 18.2373 9.28906 18.2373C4.26792 18.2372 0.200306 14.198 0.200195 9.21875C0.200195 4.23946 4.26785 0.200313 9.28906 0.200195Z" fill="#F1F5F8" stroke="black" stroke-width="0.4"/>
<path d="M9.28906 21.7631C14.3104 21.7631 18.3789 25.8023 18.3789 30.7817C18.3788 35.761 14.3103 39.8002 9.28906 39.8002C4.26792 39.8001 0.200306 35.7609 0.200195 30.7817C0.200195 25.8024 4.26785 21.7632 9.28906 21.7631Z" fill="#F1F5F8" stroke="black" stroke-width="0.4"/>
<path d="M30.7104 0.200195C35.7318 0.200195 39.8003 4.23938 39.8003 9.21875C39.8002 14.198 35.7317 18.2373 30.7104 18.2373C25.6893 18.2372 21.6217 14.198 21.6216 9.21875C21.6216 4.23946 25.6892 0.200313 30.7104 0.200195Z" fill="#F1F5F8" stroke="black" stroke-width="0.4"/>
<ellipse cx="30.7107" cy="30.7815" rx="9.28928" ry="9.21855" fill="url(#paint0_linear_0_501)"/>
<path fill-rule="evenodd" clip-rule="evenodd" d="M9.26587 2.63782C9.26586 2.63782 9.26585 2.63782 9.26584 2.63782C5.63364 2.63782 2.66956 5.56291 2.66956 9.19529C2.66956 12.8277 5.63364 15.7528 9.26584 15.7528C9.26585 15.7528 9.26586 15.7528 9.26587 15.7528V12.7528C9.26586 12.7528 9.26585 12.7528 9.26584 12.7528C7.26884 12.7528 5.66956 11.1492 5.66956 9.19529C5.66956 7.24134 7.26884 5.63782 9.26584 5.63782C9.26585 5.63782 9.26586 5.63782 9.26587 5.63782V2.63782Z" fill="#F1F5F8"/>
<path d="M9.26587 2.63782H9.46587V2.43782H9.26587V2.63782ZM9.26587 15.7528V15.9528H9.46587V15.7528H9.26587ZM9.26587 12.7528H9.46587V12.5528H9.26587V12.7528ZM9.26587 5.63782V5.83782H9.46587V5.63782H9.26587ZM9.26584 2.83782C9.26584 2.83782 9.26585 2.83782 9.26585 2.83782C9.26586 2.83782 9.26586 2.83782 9.26587 2.83782V2.43782C9.26586 2.43782 9.26586 2.43782 9.26585 2.43782C9.26585 2.43782 9.26584 2.43782 9.26584 2.43782V2.83782ZM2.86956 9.19529C2.86956 5.6749 5.74255 2.83782 9.26584 2.83782V2.43782C5.52473 2.43782 2.46956 5.45091 2.46956 9.19529H2.86956ZM9.26584 15.5528C5.74255 15.5528 2.86956 12.7157 2.86956 9.19529H2.46956C2.46956 12.9397 5.52473 15.9528 9.26584 15.9528V15.5528ZM9.26587 15.5528C9.26587 15.5528 9.26587 15.5528 9.26587 15.5528C9.26587 15.5528 9.26587 15.5528 9.26587 15.5528H9.26587C9.26587 15.5528 9.26587 15.5528 9.26587 15.5528H9.26587C9.26587 15.5528 9.26587 15.5528 9.26587 15.5528H9.26587C9.26587 15.5528 9.26587 15.5528 9.26587 15.5528H9.26586C9.26586 15.5528 9.26586 15.5528 9.26586 15.5528H9.26586C9.26586 15.5528 9.26586 15.5528 9.26586 15.5528H9.26586C9.26586 15.5528 9.26586 15.5528 9.26586 15.5528H9.26586C9.26586 15.5528 9.26586 15.5528 9.26586 15.5528H9.26586C9.26586 15.5528 9.26586 15.5528 9.26586 15.5528H9.26586C9.26586 15.5528 9.26586 15.5528 9.26586 15.5528C9.26586 15.5528 9.26586 15.5528 9.26586 15.5528C9.26586 15.5528 9.26586 15.5528 9.26586 15.5528C9.26586 15.5528 9.26586 15.5528 9.26586 15.5528H9.26586C9.26586 15.5528 9.26586 15.5528 9.26586 15.5528H9.26586C9.26586 15.5528 9.26586 15.5528 9.26586 15.5528C9.26586 15.5528 9.26586 15.5528 9.26586 15.5528C9.26586 15.5528 9.26586 15.5528 9.26586 15.5528C9.26586 15.5528 9.26586 15.5528 9.26585 15.5528H9.26585C9.26585 15.5528 9.26585 15.5528 9.26585 15.5528H9.26585C9.26585 15.5528 9.26585 15.5528 9.26585 15.5528C9.26585 15.5528 9.26585 15.5528 9.26585 15.5528H9.26585C9.26585 15.5528 9.26585 15.5528 9.26585 15.5528H9.26585C9.26585 15.5528 9.26585 15.5528 9.26585 15.5528C9.26585 15.5528 9.26585 15.5528 9.26585 15.5528C9.26585 15.5528 9.26585 15.5528 9.26585 15.5528C9.26585 15.5528 9.26585 15.5528 9.26585 15.5528H9.26585C9.26585 15.5528 9.26585 15.5528 9.26585 15.5528H9.26585C9.26585 15.5528 9.26585 15.5528 9.26585 15.5528C9.26585 15.5528 9.26585 15.5528 9.26585 15.5528C9.26585 15.5528 9.26585 15.5528 9.26585 15.5528C9.26585 15.5528 9.26585 15.5528 9.26585 15.5528H9.26585C9.26585 15.5528 9.26585 15.5528 9.26584 15.5528H9.26584C9.26584 15.5528 9.26584 15.5528 9.26584 15.5528H9.26584C9.26584 15.5528 9.26584 15.5528 9.26584 15.5528H9.26584C9.26584 15.5528 9.26584 15.5528 9.26584 15.5528H9.26584C9.26584 15.5528 9.26584 15.5528 9.26584 15.5528H9.26584C9.26584 15.5528 9.26584 15.5528 9.26584 15.5528H9.26584C9.26584 15.5528 9.26584 15.5528 9.26584 15.5528H9.26584C9.26584 15.5528 9.26584 15.5528 9.26584 15.5528H9.26584C9.26584 15.5528 9.26584 15.5528 9.26584 15.5528C9.26584 15.5528 9.26584 15.5528 9.26584 15.5528V15.9528C9.26584 15.9528 9.26584 15.9528 9.26584 15.9528C9.26584 15.9528 9.26584 15.9528 9.26584 15.9528H9.26584C9.26584 15.9528 9.26584 15.9528 9.26584 15.9528H9.26584C9.26584 15.9528 9.26584 15.9528 9.26584 15.9528H9.26584C9.26584 15.9528 9.26584 15.9528 9.26584 15.9528H9.26584C9.26584 15.9528 9.26584 15.9528 9.26584 15.9528H9.26584C9.26584 15.9528 9.26584 15.9528 9.26584 15.9528H9.26584C9.26584 15.9528 9.26584 15.9528 9.26584 15.9528H9.26584C9.26584 15.9528 9.26584 15.9528 9.26584 15.9528H9.26584C9.26585 15.9528 9.26585 15.9528 9.26585 15.9528H9.26585C9.26585 15.9528 9.26585 15.9528 9.26585 15.9528C9.26585 15.9528 9.26585 15.9528 9.26585 15.9528C9.26585 15.9528 9.26585 15.9528 9.26585 15.9528C9.26585 15.9528 9.26585 15.9528 9.26585 15.9528H9.26585C9.26585 15.9528 9.26585 15.9528 9.26585 15.9528H9.26585C9.26585 15.9528 9.26585 15.9528 9.26585 15.9528C9.26585 15.9528 9.26585 15.9528 9.26585 15.9528C9.26585 15.9528 9.26585 15.9528 9.26585 15.9528C9.26585 15.9528 9.26585 15.9528 9.26585 15.9528H9.26585C9.26585 15.9528 9.26585 15.9528 9.26585 15.9528H9.26585C9.26585 15.9528 9.26585 15.9528 9.26585 15.9528C9.26585 15.9528 9.26585 15.9528 9.26585 15.9528H9.26585C9.26585 15.9528 9.26585 15.9528 9.26585 15.9528H9.26585C9.26586 15.9528 9.26586 15.9528 9.26586 15.9528C9.26586 15.9528 9.26586 15.9528 9.26586 15.9528C9.26586 15.9528 9.26586 15.9528 9.26586 15.9528C9.26586 15.9528 9.26586 15.9528 9.26586 15.9528H9.26586C9.26586 15.9528 9.26586 15.9528 9.26586 15.9528H9.26586C9.26586 15.9528 9.26586 15.9528 9.26586 15.9528C9.26586 15.9528 9.26586 15.9528 9.26586 15.9528C9.26586 15.9528 9.26586 15.9528 9.26586 15.9528C9.26586 15.9528 9.26586 15.9528 9.26586 15.9528H9.26586C9.26586 15.9528 9.26586 15.9528 9.26586 15.9528H9.26586C9.26586 15.9528 9.26586 15.9528 9.26586 15.9528H9.26586C9.26586 15.9528 9.26586 15.9528 9.26586 15.9528H9.26586C9.26586 15.9528 9.26586 15.9528 9.26586 15.9528H9.26586C9.26586 15.9528 9.26586 15.9528 9.26586 15.9528H9.26587C9.26587 15.9528 9.26587 15.9528 9.26587 15.9528H9.26587C9.26587 15.9528 9.26587 15.9528 9.26587 15.9528H9.26587C9.26587 15.9528 9.26587 15.9528 9.26587 15.9528H9.26587C9.26587 15.9528 9.26587 15.9528 9.26587 15.9528C9.26587 15.9528 9.26587 15.9528 9.26587 15.9528V15.5528ZM9.46587 15.7528V12.7528H9.06587V15.7528H9.46587ZM9.26584 12.9528C9.26584 12.9528 9.26584 12.9528 9.26584 12.9528C9.26584 12.9528 9.26584 12.9528 9.26584 12.9528H9.26584C9.26584 12.9528 9.26584 12.9528 9.26584 12.9528H9.26584C9.26584 12.9528 9.26584 12.9528 9.26584 12.9528H9.26584C9.26584 12.9528 9.26584 12.9528 9.26584 12.9528H9.26584C9.26584 12.9528 9.26584 12.9528 9.26584 12.9528H9.26584C9.26584 12.9528 9.26584 12.9528 9.26584 12.9528H9.26584C9.26584 12.9528 9.26584 12.9528 9.26584 12.9528H9.26584C9.26584 12.9528 9.26584 12.9528 9.26584 12.9528H9.26584C9.26585 12.9528 9.26585 12.9528 9.26585 12.9528H9.26585C9.26585 12.9528 9.26585 12.9528 9.26585 12.9528C9.26585 12.9528 9.26585 12.9528 9.26585 12.9528C9.26585 12.9528 9.26585 12.9528 9.26585 12.9528C9.26585 12.9528 9.26585 12.9528 9.26585 12.9528H9.26585C9.26585 12.9528 9.26585 12.9528 9.26585 12.9528H9.26585C9.26585 12.9528 9.26585 12.9528 9.26585 12.9528C9.26585 12.9528 9.26585 12.9528 9.26585 12.9528C9.26585 12.9528 9.26585 12.9528 9.26585 12.9528C9.26585 12.9528 9.26585 12.9528 9.26585 12.9528H9.26585C9.26585 12.9528 9.26585 12.9528 9.26585 12.9528H9.26585C9.26585 12.9528 9.26585 12.9528 9.26585 12.9528C9.26585 12.9528 9.26585 12.9528 9.26585 12.9528H9.26585C9.26585 12.9528 9.26585 12.9528 9.26585 12.9528H9.26585C9.26586 12.9528 9.26586 12.9528 9.26586 12.9528C9.26586 12.9528 9.26586 12.9528 9.26586 12.9528C9.26586 12.9528 9.26586 12.9528 9.26586 12.9528C9.26586 12.9528 9.26586 12.9528 9.26586 12.9528H9.26586C9.26586 12.9528 9.26586 12.9528 9.26586 12.9528H9.26586C9.26586 12.9528 9.26586 12.9528 9.26586 12.9528C9.26586 12.9528 9.26586 12.9528 9.26586 12.9528C9.26586 12.9528 9.26586 12.9528 9.26586 12.9528C9.26586 12.9528 9.26586 12.9528 9.26586 12.9528H9.26586C9.26586 12.9528 9.26586 12.9528 9.26586 12.9528H9.26586C9.26586 12.9528 9.26586 12.9528 9.26586 12.9528H9.26586C9.26586 12.9528 9.26586 12.9528 9.26586 12.9528H9.26586C9.26586 12.9528 9.26586 12.9528 9.26586 12.9528H9.26586C9.26586 12.9528 9.26586 12.9528 9.26586 12.9528H9.26587C9.26587 12.9528 9.26587 12.9528 9.26587 12.9528H9.26587C9.26587 12.9528 9.26587 12.9528 9.26587 12.9528H9.26587C9.26587 12.9528 9.26587 12.9528 9.26587 12.9528H9.26587C9.26587 12.9528 9.26587 12.9528 9.26587 12.9528C9.26587 12.9528 9.26587 12.9528 9.26587 12.9528V12.5528C9.26587 12.5528 9.26587 12.5528 9.26587 12.5528C9.26587 12.5528 9.26587 12.5528 9.26587 12.5528H9.26587C9.26587 12.5528 9.26587 12.5528 9.26587 12.5528H9.26587C9.26587 12.5528 9.26587 12.5528 9.26587 12.5528H9.26587C9.26587 12.5528 9.26587 12.5528 9.26587 12.5528H9.26586C9.26586 12.5528 9.26586 12.5528 9.26586 12.5528H9.26586C9.26586 12.5528 9.26586 12.5528 9.26586 12.5528H9.26586C9.26586 12.5528 9.26586 12.5528 9.26586 12.5528H9.26586C9.26586 12.5528 9.26586 12.5528 9.26586 12.5528H9.26586C9.26586 12.5528 9.26586 12.5528 9.26586 12.5528H9.26586C9.26586 12.5528 9.26586 12.5528 9.26586 12.5528C9.26586 12.5528 9.26586 12.5528 9.26586 12.5528C9.26586 12.5528 9.26586 12.5528 9.26586 12.5528C9.26586 12.5528 9.26586 12.5528 9.26586 12.5528H9.26586C9.26586 12.5528 9.26586 12.5528 9.26586 12.5528H9.26586C9.26586 12.5528 9.26586 12.5528 9.26586 12.5528C9.26586 12.5528 9.26586 12.5528 9.26586 12.5528C9.26586 12.5528 9.26586 12.5528 9.26586 12.5528C9.26586 12.5528 9.26586 12.5528 9.26585 12.5528H9.26585C9.26585 12.5528 9.26585 12.5528 9.26585 12.5528H9.26585C9.26585 12.5528 9.26585 12.5528 9.26585 12.5528C9.26585 12.5528 9.26585 12.5528 9.26585 12.5528H9.26585C9.26585 12.5528 9.26585 12.5528 9.26585 12.5528H9.26585C9.26585 12.5528 9.26585 12.5528 9.26585 12.5528C9.26585 12.5528 9.26585 12.5528 9.26585 12.5528C9.26585 12.5528 9.26585 12.5528 9.26585 12.5528C9.26585 12.5528 9.26585 12.5528 9.26585 12.5528H9.26585C9.26585 12.5528 9.26585 12.5528 9.26585 12.5528H9.26585C9.26585 12.5528 9.26585 12.5528 9.26585 12.5528C9.26585 12.5528 9.26585 12.5528 9.26585 12.5528C9.26585 12.5528 9.26585 12.5528 9.26585 12.5528C9.26585 12.5528 9.26585 12.5528 9.26585 12.5528H9.26585C9.26585 12.5528 9.26585 12.5528 9.26584 12.5528H9.26584C9.26584 12.5528 9.26584 12.5528 9.26584 12.5528H9.26584C9.26584 12.5528 9.26584 12.5528 9.26584 12.5528H9.26584C9.26584 12.5528 9.26584 12.5528 9.26584 12.5528H9.26584C9.26584 12.5528 9.26584 12.5528 9.26584 12.5528H9.26584C9.26584 12.5528 9.26584 12.5528 9.26584 12.5528H9.26584C9.26584 12.5528 9.26584 12.5528 9.26584 12.5528H9.26584C9.26584 12.5528 9.26584 12.5528 9.26584 12.5528H9.26584C9.26584 12.5528 9.26584 12.5528 9.26584 12.5528C9.26584 12.5528 9.26584 12.5528 9.26584 12.5528V12.9528ZM5.46956 9.19529C5.46956 11.261 7.15964 12.9528 9.26584 12.9528V12.5528C7.37803 12.5528 5.86956 11.0375 5.86956 9.19529H5.46956ZM9.26584 5.43782C7.15964 5.43782 5.46956 7.12963 5.46956 9.19529H5.86956C5.86956 7.35306 7.37803 5.83782 9.26584 5.83782V5.43782ZM9.26587 5.43782C9.26587 5.43782 9.26587 5.43782 9.26587 5.43782C9.26587 5.43782 9.26587 5.43782 9.26587 5.43782H9.26587C9.26587 5.43782 9.26587 5.43782 9.26587 5.43782H9.26587C9.26587 5.43782 9.26587 5.43782 9.26587 5.43782H9.26587C9.26587 5.43782 9.26587 5.43782 9.26587 5.43782H9.26586C9.26586 5.43782 9.26586 5.43782 9.26586 5.43782H9.26586C9.26586 5.43782 9.26586 5.43782 9.26586 5.43782H9.26586C9.26586 5.43782 9.26586 5.43782 9.26586 5.43782H9.26586C9.26586 5.43782 9.26586 5.43782 9.26586 5.43782H9.26586C9.26586 5.43782 9.26586 5.43782 9.26586 5.43782H9.26586C9.26586 5.43782 9.26586 5.43782 9.26586 5.43782C9.26586 5.43782 9.26586 5.43782 9.26586 5.43782C9.26586 5.43782 9.26586 5.43782 9.26586 5.43782C9.26586 5.43782 9.26586 5.43782 9.26586 5.43782H9.26586C9.26586 5.43782 9.26586 5.43782 9.26586 5.43782H9.26586C9.26586 5.43782 9.26586 5.43782 9.26586 5.43782C9.26586 5.43782 9.26586 5.43782 9.26586 5.43782C9.26586 5.43782 9.26586 5.43782 9.26586 5.43782C9.26586 5.43782 9.26586 5.43782 9.26585 5.43782H9.26585C9.26585 5.43782 9.26585 5.43782 9.26585 5.43782H9.26585C9.26585 5.43782 9.26585 5.43782 9.26585 5.43782C9.26585 5.43782 9.26585 5.43782 9.26585 5.43782H9.26585C9.26585 5.43782 9.26585 5.43782 9.26585 5.43782H9.26585C9.26585 5.43782 9.26585 5.43782 9.26585 5.43782C9.26585 5.43782 9.26585 5.43782 9.26585 5.43782C9.26585 5.43782 9.26585 5.43782 9.26585 5.43782C9.26585 5.43782 9.26585 5.43782 9.26585 5.43782H9.26585C9.26585 5.43782 9.26585 5.43782 9.26585 5.43782H9.26585C9.26585 5.43782 9.26585 5.43782 9.26585 5.43782C9.26585 5.43782 9.26585 5.43782 9.26585 5.43782C9.26585 5.43782 9.26585 5.43782 9.26585 5.43782C9.26585 5.43782 9.26585 5.43782 9.26585 5.43782H9.26585C9.26585 5.43782 9.26585 5.43782 9.26584 5.43782H9.26584C9.26584 5.43782 9.26584 5.43782 9.26584 5.43782H9.26584C9.26584 5.43782 9.26584 5.43782 9.26584 5.43782H9.26584C9.26584 5.43782 9.26584 5.43782 9.26584 5.43782H9.26584C9.26584 5.43782 9.26584 5.43782 9.26584 5.43782H9.26584C9.26584 5.43782 9.26584 5.43782 9.26584 5.43782H9.26584C9.26584 5.43782 9.26584 5.43782 9.26584 5.43782H9.26584C9.26584 5.43782 9.26584 5.43782 9.26584 5.43782H9.26584C9.26584 5.43782 9.26584 5.43782 9.26584 5.43782C9.26584 5.43782 9.26584 5.43782 9.26584 5.43782V5.83782C9.26584 5.83782 9.26584 5.83782 9.26584 5.83782C9.26584 5.83782 9.26584 5.83782 9.26584 5.83782H9.26584C9.26584 5.83782 9.26584 5.83782 9.26584 5.83782H9.26584C9.26584 5.83782 9.26584 5.83782 9.26584 5.83782H9.26584C9.26584 5.83782 9.26584 5.83782 9.26584 5.83782H9.26584C9.26584 5.83782 9.26584 5.83782 9.26584 5.83782H9.26584C9.26584 5.83782 9.26584 5.83782 9.26584 5.83782H9.26584C9.26584 5.83782 9.26584 5.83782 9.26584 5.83782H9.26584C9.26584 5.83782 9.26584 5.83782 9.26584 5.83782H9.26584C9.26585 5.83782 9.26585 5.83782 9.26585 5.83782H9.26585C9.26585 5.83782 9.26585 5.83782 9.26585 5.83782C9.26585 5.83782 9.26585 5.83782 9.26585 5.83782C9.26585 5.83782 9.26585 5.83782 9.26585 5.83782C9.26585 5.83782 9.26585 5.83782 9.26585 5.83782H9.26585C9.26585 5.83782 9.26585 5.83782 9.26585 5.83782H9.26585C9.26585 5.83782 9.26585 5.83782 9.26585 5.83782C9.26585 5.83782 9.26585 5.83782 9.26585 5.83782C9.26585 5.83782 9.26585 5.83782 9.26585 5.83782C9.26585 5.83782 9.26585 5.83782 9.26585 5.83782H9.26585C9.26585 5.83782 9.26585 5.83782 9.26585 5.83782H9.26585C9.26585 5.83782 9.26585 5.83782 9.26585 5.83782C9.26585 5.83782 9.26585 5.83782 9.26585 5.83782H9.26585C9.26585 5.83782 9.26585 5.83782 9.26585 5.83782H9.26585C9.26586 5.83782 9.26586 5.83782 9.26586 5.83782C9.26586 5.83782 9.26586 5.83782 9.26586 5.83782C9.26586 5.83782 9.26586 5.83782 9.26586 5.83782C9.26586 5.83782 9.26586 5.83782 9.26586 5.83782H9.26586C9.26586 5.83782 9.26586 5.83782 9.26586 5.83782H9.26586C9.26586 5.83782 9.26586 5.83782 9.26586 5.83782C9.26586 5.83782 9.26586 5.83782 9.26586 5.83782C9.26586 5.83782 9.26586 5.83782 9.26586 5.83782C9.26586 5.83782 9.26586 5.83782 9.26586 5.83782H9.26586C9.26586 5.83782 9.26586 5.83782 9.26586 5.83782H9.26586C9.26586 5.83782 9.26586 5.83782 9.26586 5.83782H9.26586C9.26586 5.83782 9.26586 5.83782 9.26586 5.83782H9.26586C9.26586 5.83782 9.26586 5.83782 9.26586 5.83782H9.26586C9.26586 5.83782 9.26586 5.83782 9.26586 5.83782H9.26587C9.26587 5.83782 9.26587 5.83782 9.26587 5.83782H9.26587C9.26587 5.83782 9.26587 5.83782 9.26587 5.83782H9.26587C9.26587 5.83782 9.26587 5.83782 9.26587 5.83782H9.26587C9.26587 5.83782 9.26587 5.83782 9.26587 5.83782C9.26587 5.83782 9.26587 5.83782 9.26587 5.83782V5.43782ZM9.46587 5.63782V2.63782H9.06587V5.63782H9.46587Z" fill="black"/>
<path fill-rule="evenodd" clip-rule="evenodd" d="M30.3461 2.63782C30.3461 2.63782 30.346 2.63782 30.346 2.63782C26.7138 2.63782 23.7498 5.56291 23.7498 9.19529C23.7498 12.8277 26.7138 15.7528 30.346 15.7528C30.346 15.7528 30.3461 15.7528 30.3461 15.7528V12.7528C30.3461 12.7528 30.346 12.7528 30.346 12.7528C28.349 12.7528 26.7498 11.1492 26.7498 9.19529C26.7498 7.24134 28.349 5.63782 30.346 5.63782C30.346 5.63782 30.3461 5.63782 30.3461 5.63782V2.63782Z" fill="#F1F5F8"/>
<path d="M30.3461 2.63782H30.5461V2.43782H30.3461V2.63782ZM30.3461 15.7528V15.9528H30.5461V15.7528H30.3461ZM30.3461 12.7528H30.5461V12.5528H30.3461V12.7528ZM30.3461 5.63782V5.83782H30.5461V5.63782H30.3461ZM30.346 2.83782C30.346 2.83782 30.346 2.83782 30.3461 2.83782C30.3461 2.83782 30.3461 2.83782 30.3461 2.83782V2.43782C30.3461 2.43782 30.3461 2.43782 30.3461 2.43782C30.346 2.43782 30.346 2.43782 30.346 2.43782V2.83782ZM23.9498 9.19529C23.9498 5.6749 26.8228 2.83782 30.346 2.83782V2.43782C26.6049 2.43782 23.5498 5.45091 23.5498 9.19529H23.9498ZM30.346 15.5528C26.8228 15.5528 23.9498 12.7157 23.9498 9.19529H23.5498C23.5498 12.9397 26.6049 15.9528 30.346 15.9528V15.5528ZM30.3461 15.5528C30.3461 15.5528 30.3461 15.5528 30.3461 15.5528C30.3461 15.5528 30.3461 15.5528 30.3461 15.5528H30.3461C30.3461 15.5528 30.3461 15.5528 30.3461 15.5528H30.3461C30.3461 15.5528 30.3461 15.5528 30.3461 15.5528H30.3461C30.3461 15.5528 30.3461 15.5528 30.3461 15.5528H30.3461C30.3461 15.5528 30.3461 15.5528 30.3461 15.5528H30.3461C30.3461 15.5528 30.3461 15.5528 30.3461 15.5528H30.3461C30.3461 15.5528 30.3461 15.5528 30.3461 15.5528H30.3461C30.3461 15.5528 30.3461 15.5528 30.3461 15.5528H30.3461C30.3461 15.5528 30.3461 15.5528 30.3461 15.5528H30.3461C30.3461 15.5528 30.3461 15.5528 30.3461 15.5528C30.3461 15.5528 30.3461 15.5528 30.3461 15.5528C30.3461 15.5528 30.3461 15.5528 30.3461 15.5528C30.3461 15.5528 30.3461 15.5528 30.3461 15.5528H30.3461C30.3461 15.5528 30.3461 15.5528 30.3461 15.5528H30.3461C30.3461 15.5528 30.3461 15.5528 30.3461 15.5528C30.3461 15.5528 30.3461 15.5528 30.3461 15.5528C30.3461 15.5528 30.3461 15.5528 30.3461 15.5528C30.3461 15.5528 30.3461 15.5528 30.3461 15.5528H30.3461C30.3461 15.5528 30.3461 15.5528 30.3461 15.5528H30.3461C30.3461 15.5528 30.3461 15.5528 30.3461 15.5528C30.3461 15.5528 30.3461 15.5528 30.3461 15.5528H30.3461C30.3461 15.5528 30.3461 15.5528 30.3461 15.5528H30.3461C30.3461 15.5528 30.3461 15.5528 30.3461 15.5528C30.3461 15.5528 30.3461 15.5528 30.3461 15.5528C30.346 15.5528 30.346 15.5528 30.346 15.5528C30.346 15.5528 30.346 15.5528 30.346 15.5528H30.346C30.346 15.5528 30.346 15.5528 30.346 15.5528H30.346C30.346 15.5528 30.346 15.5528 30.346 15.5528C30.346 15.5528 30.346 15.5528 30.346 15.5528C30.346 15.5528 30.346 15.5528 30.346 15.5528C30.346 15.5528 30.346 15.5528 30.346 15.5528H30.346C30.346 15.5528 30.346 15.5528 30.346 15.5528H30.346C30.346 15.5528 30.346 15.5528 30.346 15.5528H30.346C30.346 15.5528 30.346 15.5528 30.346 15.5528H30.346C30.346 15.5528 30.346 15.5528 30.346 15.5528H30.346C30.346 15.5528 30.346 15.5528 30.346 15.5528H30.346C30.346 15.5528 30.346 15.5528 30.346 15.5528H30.346C30.346 15.5528 30.346 15.5528 30.346 15.5528H30.346C30.346 15.5528 30.346 15.5528 30.346 15.5528H30.346C30.346 15.5528 30.346 15.5528 30.346 15.5528C30.346 15.5528 30.346 15.5528 30.346 15.5528V15.9528C30.346 15.9528 30.346 15.9528 30.346 15.9528C30.346 15.9528 30.346 15.9528 30.346 15.9528H30.346C30.346 15.9528 30.346 15.9528 30.346 15.9528H30.346C30.346 15.9528 30.346 15.9528 30.346 15.9528H30.346C30.346 15.9528 30.346 15.9528 30.346 15.9528H30.346C30.346 15.9528 30.346 15.9528 30.346 15.9528H30.346C30.346 15.9528 30.346 15.9528 30.346 15.9528H30.346C30.346 15.9528 30.346 15.9528 30.346 15.9528H30.346C30.346 15.9528 30.346 15.9528 30.346 15.9528H30.346C30.346 15.9528 30.346 15.9528 30.346 15.9528H30.346C30.346 15.9528 30.346 15.9528 30.346 15.9528C30.346 15.9528 30.346 15.9528 30.346 15.9528C30.346 15.9528 30.346 15.9528 30.346 15.9528C30.346 15.9528 30.346 15.9528 30.346 15.9528H30.346C30.346 15.9528 30.346 15.9528 30.346 15.9528H30.346C30.346 15.9528 30.346 15.9528 30.346 15.9528C30.346 15.9528 30.346 15.9528 30.3461 15.9528C30.3461 15.9528 30.3461 15.9528 30.3461 15.9528C30.3461 15.9528 30.3461 15.9528 30.3461 15.9528H30.3461C30.3461 15.9528 30.3461 15.9528 30.3461 15.9528H30.3461C30.3461 15.9528 30.3461 15.9528 30.3461 15.9528C30.3461 15.9528 30.3461 15.9528 30.3461 15.9528H30.3461C30.3461 15.9528 30.3461 15.9528 30.3461 15.9528H30.3461C30.3461 15.9528 30.3461 15.9528 30.3461 15.9528C30.3461 15.9528 30.3461 15.9528 30.3461 15.9528C30.3461 15.9528 30.3461 15.9528 30.3461 15.9528C30.3461 15.9528 30.3461 15.9528 30.3461 15.9528H30.3461C30.3461 15.9528 30.3461 15.9528 30.3461 15.9528H30.3461C30.3461 15.9528 30.3461 15.9528 30.3461 15.9528C30.3461 15.9528 30.3461 15.9528 30.3461 15.9528C30.3461 15.9528 30.3461 15.9528 30.3461 15.9528C30.3461 15.9528 30.3461 15.9528 30.3461 15.9528H30.3461C30.3461 15.9528 30.3461 15.9528 30.3461 15.9528H30.3461C30.3461 15.9528 30.3461 15.9528 30.3461 15.9528H30.3461C30.3461 15.9528 30.3461 15.9528 30.3461 15.9528H30.3461C30.3461 15.9528 30.3461 15.9528 30.3461 15.9528H30.3461C30.3461 15.9528 30.3461 15.9528 30.3461 15.9528H30.3461C30.3461 15.9528 30.3461 15.9528 30.3461 15.9528H30.3461C30.3461 15.9528 30.3461 15.9528 30.3461 15.9528H30.3461C30.3461 15.9528 30.3461 15.9528 30.3461 15.9528H30.3461C30.3461 15.9528 30.3461 15.9528 30.3461 15.9528C30.3461 15.9528 30.3461 15.9528 30.3461 15.9528V15.5528ZM30.5461 15.7528V12.7528H30.1461V15.7528H30.5461ZM30.346 12.9528C30.346 12.9528 30.346 12.9528 30.346 12.9528C30.346 12.9528 30.346 12.9528 30.346 12.9528H30.346C30.346 12.9528 30.346 12.9528 30.346 12.9528H30.346C30.346 12.9528 30.346 12.9528 30.346 12.9528H30.346C30.346 12.9528 30.346 12.9528 30.346 12.9528H30.346C30.346 12.9528 30.346 12.9528 30.346 12.9528H30.346C30.346 12.9528 30.346 12.9528 30.346 12.9528H30.346C30.346 12.9528 30.346 12.9528 30.346 12.9528H30.346C30.346 12.9528 30.346 12.9528 30.346 12.9528H30.346C30.346 12.9528 30.346 12.9528 30.346 12.9528H30.346C30.346 12.9528 30.346 12.9528 30.346 12.9528C30.346 12.9528 30.346 12.9528 30.346 12.9528C30.346 12.9528 30.346 12.9528 30.346 12.9528C30.346 12.9528 30.346 12.9528 30.346 12.9528H30.346C30.346 12.9528 30.346 12.9528 30.346 12.9528H30.346C30.346 12.9528 30.346 12.9528 30.346 12.9528C30.346 12.9528 30.346 12.9528 30.3461 12.9528C30.3461 12.9528 30.3461 12.9528 30.3461 12.9528C30.3461 12.9528 30.3461 12.9528 30.3461 12.9528H30.3461C30.3461 12.9528 30.3461 12.9528 30.3461 12.9528H30.3461C30.3461 12.9528 30.3461 12.9528 30.3461 12.9528C30.3461 12.9528 30.3461 12.9528 30.3461 12.9528H30.3461C30.3461 12.9528 30.3461 12.9528 30.3461 12.9528H30.3461C30.3461 12.9528 30.3461 12.9528 30.3461 12.9528C30.3461 12.9528 30.3461 12.9528 30.3461 12.9528C30.3461 12.9528 30.3461 12.9528 30.3461 12.9528C30.3461 12.9528 30.3461 12.9528 30.3461 12.9528H30.3461C30.3461 12.9528 30.3461 12.9528 30.3461 12.9528H30.3461C30.3461 12.9528 30.3461 12.9528 30.3461 12.9528C30.3461 12.9528 30.3461 12.9528 30.3461 12.9528C30.3461 12.9528 30.3461 12.9528 30.3461 12.9528C30.3461 12.9528 30.3461 12.9528 30.3461 12.9528H30.3461C30.3461 12.9528 30.3461 12.9528 30.3461 12.9528H30.3461C30.3461 12.9528 30.3461 12.9528 30.3461 12.9528H30.3461C30.3461 12.9528 30.3461 12.9528 30.3461 12.9528H30.3461C30.3461 12.9528 30.3461 12.9528 30.3461 12.9528H30.3461C30.3461 12.9528 30.3461 12.9528 30.3461 12.9528H30.3461C30.3461 12.9528 30.3461 12.9528 30.3461 12.9528H30.3461C30.3461 12.9528 30.3461 12.9528 30.3461 12.9528H30.3461C30.3461 12.9528 30.3461 12.9528 30.3461 12.9528H30.3461C30.3461 12.9528 30.3461 12.9528 30.3461 12.9528C30.3461 12.9528 30.3461 12.9528 30.3461 12.9528V12.5528C30.3461 12.5528 30.3461 12.5528 30.3461 12.5528C30.3461 12.5528 30.3461 12.5528 30.3461 12.5528H30.3461C30.3461 12.5528 30.3461 12.5528 30.3461 12.5528H30.3461C30.3461 12.5528 30.3461 12.5528 30.3461 12.5528H30.3461C30.3461 12.5528 30.3461 12.5528 30.3461 12.5528H30.3461C30.3461 12.5528 30.3461 12.5528 30.3461 12.5528H30.3461C30.3461 12.5528 30.3461 12.5528 30.3461 12.5528H30.3461C30.3461 12.5528 30.3461 12.5528 30.3461 12.5528H30.3461C30.3461 12.5528 30.3461 12.5528 30.3461 12.5528H30.3461C30.3461 12.5528 30.3461 12.5528 30.3461 12.5528H30.3461C30.3461 12.5528 30.3461 12.5528 30.3461 12.5528C30.3461 12.5528 30.3461 12.5528 30.3461 12.5528C30.3461 12.5528 30.3461 12.5528 30.3461 12.5528C30.3461 12.5528 30.3461 12.5528 30.3461 12.5528H30.3461C30.3461 12.5528 30.3461 12.5528 30.3461 12.5528H30.3461C30.3461 12.5528 30.3461 12.5528 30.3461 12.5528C30.3461 12.5528 30.3461 12.5528 30.3461 12.5528C30.3461 12.5528 30.3461 12.5528 30.3461 12.5528C30.3461 12.5528 30.3461 12.5528 30.3461 12.5528H30.3461C30.3461 12.5528 30.3461 12.5528 30.3461 12.5528H30.3461C30.3461 12.5528 30.3461 12.5528 30.3461 12.5528C30.3461 12.5528 30.3461 12.5528 30.3461 12.5528H30.3461C30.3461 12.5528 30.3461 12.5528 30.3461 12.5528H30.3461C30.3461 12.5528 30.3461 12.5528 30.3461 12.5528C30.3461 12.5528 30.3461 12.5528 30.3461 12.5528C30.346 12.5528 30.346 12.5528 30.346 12.5528C30.346 12.5528 30.346 12.5528 30.346 12.5528H30.346C30.346 12.5528 30.346 12.5528 30.346 12.5528H30.346C30.346 12.5528 30.346 12.5528 30.346 12.5528C30.346 12.5528 30.346 12.5528 30.346 12.5528C30.346 12.5528 30.346 12.5528 30.346 12.5528C30.346 12.5528 30.346 12.5528 30.346 12.5528H30.346C30.346 12.5528 30.346 12.5528 30.346 12.5528H30.346C30.346 12.5528 30.346 12.5528 30.346 12.5528H30.346C30.346 12.5528 30.346 12.5528 30.346 12.5528H30.346C30.346 12.5528 30.346 12.5528 30.346 12.5528H30.346C30.346 12.5528 30.346 12.5528 30.346 12.5528H30.346C30.346 12.5528 30.346 12.5528 30.346 12.5528H30.346C30.346 12.5528 30.346 12.5528 30.346 12.5528H30.346C30.346 12.5528 30.346 12.5528 30.346 12.5528H30.346C30.346 12.5528 30.346 12.5528 30.346 12.5528C30.346 12.5528 30.346 12.5528 30.346 12.5528V12.9528ZM26.5498 9.19529C26.5498 11.261 28.2398 12.9528 30.346 12.9528V12.5528C28.4582 12.5528 26.9498 11.0375 26.9498 9.19529H26.5498ZM30.346 5.43782C28.2398 5.43782 26.5498 7.12963 26.5498 9.19529H26.9498C26.9498 7.35306 28.4582 5.83782 30.346 5.83782V5.43782ZM30.3461 5.43782C30.3461 5.43782 30.3461 5.43782 30.3461 5.43782C30.3461 5.43782 30.3461 5.43782 30.3461 5.43782H30.3461C30.3461 5.43782 30.3461 5.43782 30.3461 5.43782H30.3461C30.3461 5.43782 30.3461 5.43782 30.3461 5.43782H30.3461C30.3461 5.43782 30.3461 5.43782 30.3461 5.43782H30.3461C30.3461 5.43782 30.3461 5.43782 30.3461 5.43782H30.3461C30.3461 5.43782 30.3461 5.43782 30.3461 5.43782H30.3461C30.3461 5.43782 30.3461 5.43782 30.3461 5.43782H30.3461C30.3461 5.43782 30.3461 5.43782 30.3461 5.43782H30.3461C30.3461 5.43782 30.3461 5.43782 30.3461 5.43782H30.3461C30.3461 5.43782 30.3461 5.43782 30.3461 5.43782C30.3461 5.43782 30.3461 5.43782 30.3461 5.43782C30.3461 5.43782 30.3461 5.43782 30.3461 5.43782C30.3461 5.43782 30.3461 5.43782 30.3461 5.43782H30.3461C30.3461 5.43782 30.3461 5.43782 30.3461 5.43782H30.3461C30.3461 5.43782 30.3461 5.43782 30.3461 5.43782C30.3461 5.43782 30.3461 5.43782 30.3461 5.43782C30.3461 5.43782 30.3461 5.43782 30.3461 5.43782C30.3461 5.43782 30.3461 5.43782 30.3461 5.43782H30.3461C30.3461 5.43782 30.3461 5.43782 30.3461 5.43782H30.3461C30.3461 5.43782 30.3461 5.43782 30.3461 5.43782C30.3461 5.43782 30.3461 5.43782 30.3461 5.43782H30.3461C30.3461 5.43782 30.3461 5.43782 30.3461 5.43782H30.3461C30.3461 5.43782 30.3461 5.43782 30.3461 5.43782C30.3461 5.43782 30.3461 5.43782 30.3461 5.43782C30.346 5.43782 30.346 5.43782 30.346 5.43782C30.346 5.43782 30.346 5.43782 30.346 5.43782H30.346C30.346 5.43782 30.346 5.43782 30.346 5.43782H30.346C30.346 5.43782 30.346 5.43782 30.346 5.43782C30.346 5.43782 30.346 5.43782 30.346 5.43782C30.346 5.43782 30.346 5.43782 30.346 5.43782C30.346 5.43782 30.346 5.43782 30.346 5.43782H30.346C30.346 5.43782 30.346 5.43782 30.346 5.43782H30.346C30.346 5.43782 30.346 5.43782 30.346 5.43782H30.346C30.346 5.43782 30.346 5.43782 30.346 5.43782H30.346C30.346 5.43782 30.346 5.43782 30.346 5.43782H30.346C30.346 5.43782 30.346 5.43782 30.346 5.43782H30.346C30.346 5.43782 30.346 5.43782 30.346 5.43782H30.346C30.346 5.43782 30.346 5.43782 30.346 5.43782H30.346C30.346 5.43782 30.346 5.43782 30.346 5.43782H30.346C30.346 5.43782 30.346 5.43782 30.346 5.43782C30.346 5.43782 30.346 5.43782 30.346 5.43782V5.83782C30.346 5.83782 30.346 5.83782 30.346 5.83782C30.346 5.83782 30.346 5.83782 30.346 5.83782H30.346C30.346 5.83782 30.346 5.83782 30.346 5.83782H30.346C30.346 5.83782 30.346 5.83782 30.346 5.83782H30.346C30.346 5.83782 30.346 5.83782 30.346 5.83782H30.346C30.346 5.83782 30.346 5.83782 30.346 5.83782H30.346C30.346 5.83782 30.346 5.83782 30.346 5.83782H30.346C30.346 5.83782 30.346 5.83782 30.346 5.83782H30.346C30.346 5.83782 30.346 5.83782 30.346 5.83782H30.346C30.346 5.83782 30.346 5.83782 30.346 5.83782H30.346C30.346 5.83782 30.346 5.83782 30.346 5.83782C30.346 5.83782 30.346 5.83782 30.346 5.83782C30.346 5.83782 30.346 5.83782 30.346 5.83782C30.346 5.83782 30.346 5.83782 30.346 5.83782H30.346C30.346 5.83782 30.346 5.83782 30.346 5.83782H30.346C30.346 5.83782 30.346 5.83782 30.346 5.83782C30.346 5.83782 30.346 5.83782 30.3461 5.83782C30.3461 5.83782 30.3461 5.83782 30.3461 5.83782C30.3461 5.83782 30.3461 5.83782 30.3461 5.83782H30.3461C30.3461 5.83782 30.3461 5.83782 30.3461 5.83782H30.3461C30.3461 5.83782 30.3461 5.83782 30.3461 5.83782C30.3461 5.83782 30.3461 5.83782 30.3461 5.83782H30.3461C30.3461 5.83782 30.3461 5.83782 30.3461 5.83782H30.3461C30.3461 5.83782 30.3461 5.83782 30.3461 5.83782C30.3461 5.83782 30.3461 5.83782 30.3461 5.83782C30.3461 5.83782 30.3461 5.83782 30.3461 5.83782C30.3461 5.83782 30.3461 5.83782 30.3461 5.83782H30.3461C30.3461 5.83782 30.3461 5.83782 30.3461 5.83782H30.3461C30.3461 5.83782 30.3461 5.83782 30.3461 5.83782C30.3461 5.83782 30.3461 5.83782 30.3461 5.83782C30.3461 5.83782 30.3461 5.83782 30.3461 5.83782C30.3461 5.83782 30.3461 5.83782 30.3461 5.83782H30.3461C30.3461 5.83782 30.3461 5.83782 30.3461 5.83782H30.3461C30.3461 5.83782 30.3461 5.83782 30.3461 5.83782H30.3461C30.3461 5.83782 30.3461 5.83782 30.3461 5.83782H30.3461C30.3461 5.83782 30.3461 5.83782 30.3461 5.83782H30.3461C30.3461 5.83782 30.3461 5.83782 30.3461 5.83782H30.3461C30.3461 5.83782 30.3461 5.83782 30.3461 5.83782H30.3461C30.3461 5.83782 30.3461 5.83782 30.3461 5.83782H30.3461C30.3461 5.83782 30.3461 5.83782 30.3461 5.83782H30.3461C30.3461 5.83782 30.3461 5.83782 30.3461 5.83782C30.3461 5.83782 30.3461 5.83782 30.3461 5.83782V5.43782ZM30.5461 5.63782V2.63782H30.1461V5.63782H30.5461Z" fill="black"/>
<path fill-rule="evenodd" clip-rule="evenodd" d="M9.26587 24.0173C9.26586 24.0173 9.26585 24.0173 9.26584 24.0173C5.63364 24.0173 2.66956 26.9424 2.66956 30.5748C2.66956 34.2072 5.63364 37.1323 9.26584 37.1323C9.26585 37.1323 9.26586 37.1323 9.26587 37.1323V34.1323C9.26586 34.1323 9.26585 34.1323 9.26584 34.1323C7.26884 34.1323 5.66956 32.5288 5.66956 30.5748C5.66956 28.6209 7.26884 27.0173 9.26584 27.0173C9.26585 27.0173 9.26586 27.0173 9.26587 27.0173V24.0173Z" fill="#F1F5F8"/>
<path d="M9.26587 24.0173H9.46587V23.8173H9.26587V24.0173ZM9.26587 37.1323V37.3323H9.46587V37.1323H9.26587ZM9.26587 34.1323H9.46587V33.9323H9.26587V34.1323ZM9.26587 27.0173V27.2173H9.46587V27.0173H9.26587ZM9.26584 24.2173C9.26584 24.2173 9.26585 24.2173 9.26585 24.2173C9.26586 24.2173 9.26586 24.2173 9.26587 24.2173V23.8173C9.26586 23.8173 9.26586 23.8173 9.26585 23.8173C9.26585 23.8173 9.26584 23.8173 9.26584 23.8173V24.2173ZM2.86956 30.5748C2.86956 27.0544 5.74255 24.2173 9.26584 24.2173V23.8173C5.52473 23.8173 2.46956 26.8304 2.46956 30.5748H2.86956ZM9.26584 36.9323C5.74255 36.9323 2.86956 34.0952 2.86956 30.5748H2.46956C2.46956 34.3192 5.52473 37.3323 9.26584 37.3323V36.9323ZM9.26587 36.9323C9.26587 36.9323 9.26587 36.9323 9.26587 36.9323C9.26587 36.9323 9.26587 36.9323 9.26587 36.9323H9.26587C9.26587 36.9323 9.26587 36.9323 9.26587 36.9323H9.26587C9.26587 36.9323 9.26587 36.9323 9.26587 36.9323H9.26587C9.26587 36.9323 9.26587 36.9323 9.26587 36.9323H9.26586C9.26586 36.9323 9.26586 36.9323 9.26586 36.9323H9.26586C9.26586 36.9323 9.26586 36.9323 9.26586 36.9323H9.26586C9.26586 36.9323 9.26586 36.9323 9.26586 36.9323H9.26586C9.26586 36.9323 9.26586 36.9323 9.26586 36.9323H9.26586C9.26586 36.9323 9.26586 36.9323 9.26586 36.9323H9.26586C9.26586 36.9323 9.26586 36.9323 9.26586 36.9323C9.26586 36.9323 9.26586 36.9323 9.26586 36.9323C9.26586 36.9323 9.26586 36.9323 9.26586 36.9323C9.26586 36.9323 9.26586 36.9323 9.26586 36.9323H9.26586C9.26586 36.9323 9.26586 36.9323 9.26586 36.9323H9.26586C9.26586 36.9323 9.26586 36.9323 9.26586 36.9323C9.26586 36.9323 9.26586 36.9323 9.26586 36.9323C9.26586 36.9323 9.26586 36.9323 9.26586 36.9323C9.26586 36.9323 9.26586 36.9323 9.26585 36.9323H9.26585C9.26585 36.9323 9.26585 36.9323 9.26585 36.9323H9.26585C9.26585 36.9323 9.26585 36.9323 9.26585 36.9323C9.26585 36.9323 9.26585 36.9323 9.26585 36.9323H9.26585C9.26585 36.9323 9.26585 36.9323 9.26585 36.9323H9.26585C9.26585 36.9323 9.26585 36.9323 9.26585 36.9323C9.26585 36.9323 9.26585 36.9323 9.26585 36.9323C9.26585 36.9323 9.26585 36.9323 9.26585 36.9323C9.26585 36.9323 9.26585 36.9323 9.26585 36.9323H9.26585C9.26585 36.9323 9.26585 36.9323 9.26585 36.9323H9.26585C9.26585 36.9323 9.26585 36.9323 9.26585 36.9323C9.26585 36.9323 9.26585 36.9323 9.26585 36.9323C9.26585 36.9323 9.26585 36.9323 9.26585 36.9323C9.26585 36.9323 9.26585 36.9323 9.26585 36.9323H9.26585C9.26585 36.9323 9.26585 36.9323 9.26584 36.9323H9.26584C9.26584 36.9323 9.26584 36.9323 9.26584 36.9323H9.26584C9.26584 36.9323 9.26584 36.9323 9.26584 36.9323H9.26584C9.26584 36.9323 9.26584 36.9323 9.26584 36.9323H9.26584C9.26584 36.9323 9.26584 36.9323 9.26584 36.9323H9.26584C9.26584 36.9323 9.26584 36.9323 9.26584 36.9323H9.26584C9.26584 36.9323 9.26584 36.9323 9.26584 36.9323H9.26584C9.26584 36.9323 9.26584 36.9323 9.26584 36.9323H9.26584C9.26584 36.9323 9.26584 36.9323 9.26584 36.9323C9.26584 36.9323 9.26584 36.9323 9.26584 36.9323V37.3323C9.26584 37.3323 9.26584 37.3323 9.26584 37.3323C9.26584 37.3323 9.26584 37.3323 9.26584 37.3323H9.26584C9.26584 37.3323 9.26584 37.3323 9.26584 37.3323H9.26584C9.26584 37.3323 9.26584 37.3323 9.26584 37.3323H9.26584C9.26584 37.3323 9.26584 37.3323 9.26584 37.3323H9.26584C9.26584 37.3323 9.26584 37.3323 9.26584 37.3323H9.26584C9.26584 37.3323 9.26584 37.3323 9.26584 37.3323H9.26584C9.26584 37.3323 9.26584 37.3323 9.26584 37.3323H9.26584C9.26584 37.3323 9.26584 37.3323 9.26584 37.3323H9.26584C9.26585 37.3323 9.26585 37.3323 9.26585 37.3323H9.26585C9.26585 37.3323 9.26585 37.3323 9.26585 37.3323C9.26585 37.3323 9.26585 37.3323 9.26585 37.3323C9.26585 37.3323 9.26585 37.3323 9.26585 37.3323C9.26585 37.3323 9.26585 37.3323 9.26585 37.3323H9.26585C9.26585 37.3323 9.26585 37.3323 9.26585 37.3323H9.26585C9.26585 37.3323 9.26585 37.3323 9.26585 37.3323C9.26585 37.3323 9.26585 37.3323 9.26585 37.3323C9.26585 37.3323 9.26585 37.3323 9.26585 37.3323C9.26585 37.3323 9.26585 37.3323 9.26585 37.3323H9.26585C9.26585 37.3323 9.26585 37.3323 9.26585 37.3323H9.26585C9.26585 37.3323 9.26585 37.3323 9.26585 37.3323C9.26585 37.3323 9.26585 37.3323 9.26585 37.3323H9.26585C9.26585 37.3323 9.26585 37.3323 9.26585 37.3323H9.26585C9.26586 37.3323 9.26586 37.3323 9.26586 37.3323C9.26586 37.3323 9.26586 37.3323 9.26586 37.3323C9.26586 37.3323 9.26586 37.3323 9.26586 37.3323C9.26586 37.3323 9.26586 37.3323 9.26586 37.3323H9.26586C9.26586 37.3323 9.26586 37.3323 9.26586 37.3323H9.26586C9.26586 37.3323 9.26586 37.3323 9.26586 37.3323C9.26586 37.3323 9.26586 37.3323 9.26586 37.3323C9.26586 37.3323 9.26586 37.3323 9.26586 37.3323C9.26586 37.3323 9.26586 37.3323 9.26586 37.3323H9.26586C9.26586 37.3323 9.26586 37.3323 9.26586 37.3323H9.26586C9.26586 37.3323 9.26586 37.3323 9.26586 37.3323H9.26586C9.26586 37.3323 9.26586 37.3323 9.26586 37.3323H9.26586C9.26586 37.3323 9.26586 37.3323 9.26586 37.3323H9.26586C9.26586 37.3323 9.26586 37.3323 9.26586 37.3323H9.26587C9.26587 37.3323 9.26587 37.3323 9.26587 37.3323H9.26587C9.26587 37.3323 9.26587 37.3323 9.26587 37.3323H9.26587C9.26587 37.3323 9.26587 37.3323 9.26587 37.3323H9.26587C9.26587 37.3323 9.26587 37.3323 9.26587 37.3323C9.26587 37.3323 9.26587 37.3323 9.26587 37.3323V36.9323ZM9.46587 37.1323V34.1323H9.06587V37.1323H9.46587ZM9.26584 34.3323C9.26584 34.3323 9.26584 34.3323 9.26584 34.3323C9.26584 34.3323 9.26584 34.3323 9.26584 34.3323H9.26584C9.26584 34.3323 9.26584 34.3323 9.26584 34.3323H9.26584C9.26584 34.3323 9.26584 34.3323 9.26584 34.3323H9.26584C9.26584 34.3323 9.26584 34.3323 9.26584 34.3323H9.26584C9.26584 34.3323 9.26584 34.3323 9.26584 34.3323H9.26584C9.26584 34.3323 9.26584 34.3323 9.26584 34.3323H9.26584C9.26584 34.3323 9.26584 34.3323 9.26584 34.3323H9.26584C9.26584 34.3323 9.26584 34.3323 9.26584 34.3323H9.26584C9.26585 34.3323 9.26585 34.3323 9.26585 34.3323H9.26585C9.26585 34.3323 9.26585 34.3323 9.26585 34.3323C9.26585 34.3323 9.26585 34.3323 9.26585 34.3323C9.26585 34.3323 9.26585 34.3323 9.26585 34.3323C9.26585 34.3323 9.26585 34.3323 9.26585 34.3323H9.26585C9.26585 34.3323 9.26585 34.3323 9.26585 34.3323H9.26585C9.26585 34.3323 9.26585 34.3323 9.26585 34.3323C9.26585 34.3323 9.26585 34.3323 9.26585 34.3323C9.26585 34.3323 9.26585 34.3323 9.26585 34.3323C9.26585 34.3323 9.26585 34.3323 9.26585 34.3323H9.26585C9.26585 34.3323 9.26585 34.3323 9.26585 34.3323H9.26585C9.26585 34.3323 9.26585 34.3323 9.26585 34.3323C9.26585 34.3323 9.26585 34.3323 9.26585 34.3323H9.26585C9.26585 34.3323 9.26585 34.3323 9.26585 34.3323H9.26585C9.26586 34.3323 9.26586 34.3323 9.26586 34.3323C9.26586 34.3323 9.26586 34.3323 9.26586 34.3323C9.26586 34.3323 9.26586 34.3323 9.26586 34.3323C9.26586 34.3323 9.26586 34.3323 9.26586 34.3323H9.26586C9.26586 34.3323 9.26586 34.3323 9.26586 34.3323H9.26586C9.26586 34.3323 9.26586 34.3323 9.26586 34.3323C9.26586 34.3323 9.26586 34.3323 9.26586 34.3323C9.26586 34.3323 9.26586 34.3323 9.26586 34.3323C9.26586 34.3323 9.26586 34.3323 9.26586 34.3323H9.26586C9.26586 34.3323 9.26586 34.3323 9.26586 34.3323H9.26586C9.26586 34.3323 9.26586 34.3323 9.26586 34.3323H9.26586C9.26586 34.3323 9.26586 34.3323 9.26586 34.3323H9.26586C9.26586 34.3323 9.26586 34.3323 9.26586 34.3323H9.26586C9.26586 34.3323 9.26586 34.3323 9.26586 34.3323H9.26587C9.26587 34.3323 9.26587 34.3323 9.26587 34.3323H9.26587C9.26587 34.3323 9.26587 34.3323 9.26587 34.3323H9.26587C9.26587 34.3323 9.26587 34.3323 9.26587 34.3323H9.26587C9.26587 34.3323 9.26587 34.3323 9.26587 34.3323C9.26587 34.3323 9.26587 34.3323 9.26587 34.3323V33.9323C9.26587 33.9323 9.26587 33.9323 9.26587 33.9323C9.26587 33.9323 9.26587 33.9323 9.26587 33.9323H9.26587C9.26587 33.9323 9.26587 33.9323 9.26587 33.9323H9.26587C9.26587 33.9323 9.26587 33.9323 9.26587 33.9323H9.26587C9.26587 33.9323 9.26587 33.9323 9.26587 33.9323H9.26586C9.26586 33.9323 9.26586 33.9323 9.26586 33.9323H9.26586C9.26586 33.9323 9.26586 33.9323 9.26586 33.9323H9.26586C9.26586 33.9323 9.26586 33.9323 9.26586 33.9323H9.26586C9.26586 33.9323 9.26586 33.9323 9.26586 33.9323H9.26586C9.26586 33.9323 9.26586 33.9323 9.26586 33.9323H9.26586C9.26586 33.9323 9.26586 33.9323 9.26586 33.9323C9.26586 33.9323 9.26586 33.9323 9.26586 33.9323C9.26586 33.9323 9.26586 33.9323 9.26586 33.9323C9.26586 33.9323 9.26586 33.9323 9.26586 33.9323H9.26586C9.26586 33.9323 9.26586 33.9323 9.26586 33.9323H9.26586C9.26586 33.9323 9.26586 33.9323 9.26586 33.9323C9.26586 33.9323 9.26586 33.9323 9.26586 33.9323C9.26586 33.9323 9.26586 33.9323 9.26586 33.9323C9.26586 33.9323 9.26586 33.9323 9.26585 33.9323H9.26585C9.26585 33.9323 9.26585 33.9323 9.26585 33.9323H9.26585C9.26585 33.9323 9.26585 33.9323 9.26585 33.9323C9.26585 33.9323 9.26585 33.9323 9.26585 33.9323H9.26585C9.26585 33.9323 9.26585 33.9323 9.26585 33.9323H9.26585C9.26585 33.9323 9.26585 33.9323 9.26585 33.9323C9.26585 33.9323 9.26585 33.9323 9.26585 33.9323C9.26585 33.9323 9.26585 33.9323 9.26585 33.9323C9.26585 33.9323 9.26585 33.9323 9.26585 33.9323H9.26585C9.26585 33.9323 9.26585 33.9323 9.26585 33.9323H9.26585C9.26585 33.9323 9.26585 33.9323 9.26585 33.9323C9.26585 33.9323 9.26585 33.9323 9.26585 33.9323C9.26585 33.9323 9.26585 33.9323 9.26585 33.9323C9.26585 33.9323 9.26585 33.9323 9.26585 33.9323H9.26585C9.26585 33.9323 9.26585 33.9323 9.26584 33.9323H9.26584C9.26584 33.9323 9.26584 33.9323 9.26584 33.9323H9.26584C9.26584 33.9323 9.26584 33.9323 9.26584 33.9323H9.26584C9.26584 33.9323 9.26584 33.9323 9.26584 33.9323H9.26584C9.26584 33.9323 9.26584 33.9323 9.26584 33.9323H9.26584C9.26584 33.9323 9.26584 33.9323 9.26584 33.9323H9.26584C9.26584 33.9323 9.26584 33.9323 9.26584 33.9323H9.26584C9.26584 33.9323 9.26584 33.9323 9.26584 33.9323H9.26584C9.26584 33.9323 9.26584 33.9323 9.26584 33.9323C9.26584 33.9323 9.26584 33.9323 9.26584 33.9323V34.3323ZM5.46956 30.5748C5.46956 32.6405 7.15964 34.3323 9.26584 34.3323V33.9323C7.37803 33.9323 5.86956 32.417 5.86956 30.5748H5.46956ZM9.26584 26.8173C7.15964 26.8173 5.46956 28.5091 5.46956 30.5748H5.86956C5.86956 28.7326 7.37803 27.2173 9.26584 27.2173V26.8173ZM9.26587 26.8173C9.26587 26.8173 9.26587 26.8173 9.26587 26.8173C9.26587 26.8173 9.26587 26.8173 9.26587 26.8173H9.26587C9.26587 26.8173 9.26587 26.8173 9.26587 26.8173H9.26587C9.26587 26.8173 9.26587 26.8173 9.26587 26.8173H9.26587C9.26587 26.8173 9.26587 26.8173 9.26587 26.8173H9.26586C9.26586 26.8173 9.26586 26.8173 9.26586 26.8173H9.26586C9.26586 26.8173 9.26586 26.8173 9.26586 26.8173H9.26586C9.26586 26.8173 9.26586 26.8173 9.26586 26.8173H9.26586C9.26586 26.8173 9.26586 26.8173 9.26586 26.8173H9.26586C9.26586 26.8173 9.26586 26.8173 9.26586 26.8173H9.26586C9.26586 26.8173 9.26586 26.8173 9.26586 26.8173C9.26586 26.8173 9.26586 26.8173 9.26586 26.8173C9.26586 26.8173 9.26586 26.8173 9.26586 26.8173C9.26586 26.8173 9.26586 26.8173 9.26586 26.8173H9.26586C9.26586 26.8173 9.26586 26.8173 9.26586 26.8173H9.26586C9.26586 26.8173 9.26586 26.8173 9.26586 26.8173C9.26586 26.8173 9.26586 26.8173 9.26586 26.8173C9.26586 26.8173 9.26586 26.8173 9.26586 26.8173C9.26586 26.8173 9.26586 26.8173 9.26585 26.8173H9.26585C9.26585 26.8173 9.26585 26.8173 9.26585 26.8173H9.26585C9.26585 26.8173 9.26585 26.8173 9.26585 26.8173C9.26585 26.8173 9.26585 26.8173 9.26585 26.8173H9.26585C9.26585 26.8173 9.26585 26.8173 9.26585 26.8173H9.26585C9.26585 26.8173 9.26585 26.8173 9.26585 26.8173C9.26585 26.8173 9.26585 26.8173 9.26585 26.8173C9.26585 26.8173 9.26585 26.8173 9.26585 26.8173C9.26585 26.8173 9.26585 26.8173 9.26585 26.8173H9.26585C9.26585 26.8173 9.26585 26.8173 9.26585 26.8173H9.26585C9.26585 26.8173 9.26585 26.8173 9.26585 26.8173C9.26585 26.8173 9.26585 26.8173 9.26585 26.8173C9.26585 26.8173 9.26585 26.8173 9.26585 26.8173C9.26585 26.8173 9.26585 26.8173 9.26585 26.8173H9.26585C9.26585 26.8173 9.26585 26.8173 9.26584 26.8173H9.26584C9.26584 26.8173 9.26584 26.8173 9.26584 26.8173H9.26584C9.26584 26.8173 9.26584 26.8173 9.26584 26.8173H9.26584C9.26584 26.8173 9.26584 26.8173 9.26584 26.8173H9.26584C9.26584 26.8173 9.26584 26.8173 9.26584 26.8173H9.26584C9.26584 26.8173 9.26584 26.8173 9.26584 26.8173H9.26584C9.26584 26.8173 9.26584 26.8173 9.26584 26.8173H9.26584C9.26584 26.8173 9.26584 26.8173 9.26584 26.8173H9.26584C9.26584 26.8173 9.26584 26.8173 9.26584 26.8173C9.26584 26.8173 9.26584 26.8173 9.26584 26.8173V27.2173C9.26584 27.2173 9.26584 27.2173 9.26584 27.2173C9.26584 27.2173 9.26584 27.2173 9.26584 27.2173H9.26584C9.26584 27.2173 9.26584 27.2173 9.26584 27.2173H9.26584C9.26584 27.2173 9.26584 27.2173 9.26584 27.2173H9.26584C9.26584 27.2173 9.26584 27.2173 9.26584 27.2173H9.26584C9.26584 27.2173 9.26584 27.2173 9.26584 27.2173H9.26584C9.26584 27.2173 9.26584 27.2173 9.26584 27.2173H9.26584C9.26584 27.2173 9.26584 27.2173 9.26584 27.2173H9.26584C9.26584 27.2173 9.26584 27.2173 9.26584 27.2173H9.26584C9.26585 27.2173 9.26585 27.2173 9.26585 27.2173H9.26585C9.26585 27.2173 9.26585 27.2173 9.26585 27.2173C9.26585 27.2173 9.26585 27.2173 9.26585 27.2173C9.26585 27.2173 9.26585 27.2173 9.26585 27.2173C9.26585 27.2173 9.26585 27.2173 9.26585 27.2173H9.26585C9.26585 27.2173 9.26585 27.2173 9.26585 27.2173H9.26585C9.26585 27.2173 9.26585 27.2173 9.26585 27.2173C9.26585 27.2173 9.26585 27.2173 9.26585 27.2173C9.26585 27.2173 9.26585 27.2173 9.26585 27.2173C9.26585 27.2173 9.26585 27.2173 9.26585 27.2173H9.26585C9.26585 27.2173 9.26585 27.2173 9.26585 27.2173H9.26585C9.26585 27.2173 9.26585 27.2173 9.26585 27.2173C9.26585 27.2173 9.26585 27.2173 9.26585 27.2173H9.26585C9.26585 27.2173 9.26585 27.2173 9.26585 27.2173H9.26585C9.26586 27.2173 9.26586 27.2173 9.26586 27.2173C9.26586 27.2173 9.26586 27.2173 9.26586 27.2173C9.26586 27.2173 9.26586 27.2173 9.26586 27.2173C9.26586 27.2173 9.26586 27.2173 9.26586 27.2173H9.26586C9.26586 27.2173 9.26586 27.2173 9.26586 27.2173H9.26586C9.26586 27.2173 9.26586 27.2173 9.26586 27.2173C9.26586 27.2173 9.26586 27.2173 9.26586 27.2173C9.26586 27.2173 9.26586 27.2173 9.26586 27.2173C9.26586 27.2173 9.26586 27.2173 9.26586 27.2173H9.26586C9.26586 27.2173 9.26586 27.2173 9.26586 27.2173H9.26586C9.26586 27.2173 9.26586 27.2173 9.26586 27.2173H9.26586C9.26586 27.2173 9.26586 27.2173 9.26586 27.2173H9.26586C9.26586 27.2173 9.26586 27.2173 9.26586 27.2173H9.26586C9.26586 27.2173 9.26586 27.2173 9.26586 27.2173H9.26587C9.26587 27.2173 9.26587 27.2173 9.26587 27.2173H9.26587C9.26587 27.2173 9.26587 27.2173 9.26587 27.2173H9.26587C9.26587 27.2173 9.26587 27.2173 9.26587 27.2173H9.26587C9.26587 27.2173 9.26587 27.2173 9.26587 27.2173C9.26587 27.2173 9.26587 27.2173 9.26587 27.2173V26.8173ZM9.46587 27.0173V24.0173H9.06587V27.0173H9.46587Z" fill="black"/>
<defs>
<linearGradient id="paint0_linear_0_501" x1="30.7107" y1="21.563" x2="30.7107" y2="40.0001" gradientUnits="userSpaceOnUse">
<stop stop-color="#4614E8"/>
<stop offset="1" stop-color="#BCA7FF"/>
</linearGradient>
</defs>
</svg>
