<svg width="44" height="42" viewBox="0 0 44 42" fill="none" xmlns="http://www.w3.org/2000/svg">
<mask id="path-1-inside-1_19831_32" fill="white">
<path d="M40 22C40 33.0457 31.0457 42 20 42C8.9543 42 0 33.0457 0 22C0 10.9543 8.9543 2 20 2C31.0457 2 40 10.9543 40 22Z"/>
</mask>
<path d="M40 22C40 33.0457 31.0457 42 20 42C8.9543 42 0 33.0457 0 22C0 10.9543 8.9543 2 20 2C31.0457 2 40 10.9543 40 22Z" fill="#F4F7FA"/>
<path d="M39.6 22C39.6 32.8248 30.8248 41.6 20 41.6V42.4C31.2666 42.4 40.4 33.2666 40.4 22H39.6ZM20 41.6C9.17522 41.6 0.4 32.8248 0.4 22H-0.4C-0.4 33.2666 8.73339 42.4 20 42.4V41.6ZM0.4 22C0.4 11.1752 9.17522 2.4 20 2.4V1.6C8.73339 1.6 -0.4 10.7334 -0.4 22H0.4ZM20 2.4C30.8248 2.4 39.6 11.1752 39.6 22H40.4C40.4 10.7334 31.2666 1.6 20 1.6V2.4Z" fill="black" mask="url(#path-1-inside-1_19831_32)"/>
<g clip-path="url(#clip0_19831_32)">
<path d="M20.1646 14.445C20.6737 14.4452 21.0845 14.8567 21.0845 15.3659V21.6296L21.1646 21.6891L25.1997 24.7155C25.5811 25.0013 25.677 25.5259 25.436 25.9245L25.3833 26.0026V26.0036C25.2034 26.2459 24.9279 26.3727 24.646 26.3727C24.5015 26.3727 24.3566 26.3387 24.2231 26.2692L24.0942 26.1882L19.6118 22.8259L19.5288 22.7565C19.3478 22.5846 19.2437 22.3435 19.2437 22.0895V15.3659C19.2437 14.8566 19.6553 14.445 20.1646 14.445Z" fill="#F4F7FA" stroke="black" stroke-width="0.4"/>
<path d="M20.1639 7.73212C28.0316 7.73212 34.4323 14.1321 34.4325 21.9997C34.4325 29.8674 28.0317 36.2682 20.1639 36.2682C12.2964 36.2681 5.89636 29.8673 5.89636 21.9997C5.89653 14.1322 12.2965 7.73229 20.1639 7.73212ZM20.1639 9.57294C13.3128 9.57311 7.73735 15.1485 7.73718 21.9997C7.73718 28.851 13.3127 34.4263 20.1639 34.4265C27.0153 34.4265 32.5907 28.8511 32.5907 21.9997C32.5905 15.1485 27.0164 9.57294 20.1639 9.57294Z" fill="#F4F7FA" stroke="black" stroke-width="0.4"/>
</g>
<mask id="path-6-inside-2_19831_32" fill="white">
<path fill-rule="evenodd" clip-rule="evenodd" d="M26.7747 0.301929C31.9987 1.62446 35.9168 7.13573 35.9168 13.7337C35.9168 20.3317 31.9987 25.8429 26.7748 27.1655C27.7027 27.3633 28.6653 27.4674 29.6523 27.4674C37.2372 27.4674 43.386 21.3186 43.386 13.7337C43.386 6.14877 37.2372 -2.28882e-05 29.6523 -2.28882e-05C28.6653 -2.28882e-05 27.7027 0.10409 26.7747 0.301929Z"/>
</mask>
<path fill-rule="evenodd" clip-rule="evenodd" d="M26.7747 0.301929C31.9987 1.62446 35.9168 7.13573 35.9168 13.7337C35.9168 20.3317 31.9987 25.8429 26.7748 27.1655C27.7027 27.3633 28.6653 27.4674 29.6523 27.4674C37.2372 27.4674 43.386 21.3186 43.386 13.7337C43.386 6.14877 37.2372 -2.28882e-05 29.6523 -2.28882e-05C28.6653 -2.28882e-05 27.7027 0.10409 26.7747 0.301929Z" fill="#7247FF"/>
<path fill-rule="evenodd" clip-rule="evenodd" d="M26.7747 0.301929C31.9987 1.62446 35.9168 7.13573 35.9168 13.7337C35.9168 20.3317 31.9987 25.8429 26.7748 27.1655C27.7027 27.3633 28.6653 27.4674 29.6523 27.4674C37.2372 27.4674 43.386 21.3186 43.386 13.7337C43.386 6.14877 37.2372 -2.28882e-05 29.6523 -2.28882e-05C28.6653 -2.28882e-05 27.7027 0.10409 26.7747 0.301929Z" fill="url(#paint0_linear_19831_32)"/>
<path d="M26.7747 0.301929L26.7121 0.00852394L26.7011 0.592754L26.7747 0.301929ZM26.7748 27.1655L26.7012 26.8747L26.7122 27.4589L26.7748 27.1655ZM26.7011 0.592754C31.7646 1.87466 35.6168 7.24268 35.6168 13.7337H36.2168C36.2168 7.02878 32.2328 1.37426 26.8483 0.0111046L26.7011 0.592754ZM35.6168 13.7337C35.6168 20.2247 31.7646 25.5927 26.7012 26.8747L26.8484 27.4563C32.2328 26.0931 36.2168 20.4386 36.2168 13.7337H35.6168ZM29.6523 27.1674C28.6865 27.1674 27.7448 27.0655 26.8373 26.8721L26.7122 27.4589C27.6606 27.6611 28.6442 27.7674 29.6523 27.7674V27.1674ZM43.086 13.7337C43.086 21.1529 37.0715 27.1674 29.6523 27.1674V27.7674C37.4029 27.7674 43.686 21.4843 43.686 13.7337H43.086ZM29.6523 0.299976C37.0715 0.299976 43.086 6.31446 43.086 13.7337H43.686C43.686 5.98309 37.4029 -0.300022 29.6523 -0.300022V0.299976ZM26.8372 0.595335C27.7448 0.401852 28.6864 0.299976 29.6523 0.299976V-0.300022C28.6441 -0.300022 27.6605 -0.193672 26.7121 0.00852394L26.8372 0.595335Z" fill="black" mask="url(#path-6-inside-2_19831_32)"/>
<defs>
<linearGradient id="paint0_linear_19831_32" x1="35.0803" y1="27.4674" x2="35.0803" y2="-2.28882e-05" gradientUnits="userSpaceOnUse">
<stop stop-color="#4614E8"/>
<stop offset="1" stop-color="#BCA7FF"/>
</linearGradient>
<clipPath id="clip0_19831_32">
<rect x="5.69617" y="7.53192" width="28.9362" height="28.9362" fill="white"/>
</clipPath>
</defs>
</svg>
