<svg width="45" height="62" viewBox="0 0 45 62" fill="none" xmlns="http://www.w3.org/2000/svg">
<rect x="4" y="4" width="41" height="58" rx="5" fill="url(#paint0_linear_19874_49)"/>
<line x1="1.5" y1="-1.5" x2="29.418" y2="-1.5" transform="matrix(-1 0 0 1 40.9672 16)" stroke="url(#paint1_linear_19874_49)" stroke-width="3" stroke-linecap="round"/>
<line x1="1.5" y1="-1.5" x2="29.418" y2="-1.5" transform="matrix(-1 0 0 1 40.9672 22)" stroke="url(#paint2_linear_19874_49)" stroke-width="3" stroke-linecap="round"/>
<line x1="1.5" y1="-1.5" x2="29.418" y2="-1.5" transform="matrix(-1 0 0 1 40.9672 28)" stroke="url(#paint3_linear_19874_49)" stroke-width="3" stroke-linecap="round"/>
<line x1="1.5" y1="-1.5" x2="29.418" y2="-1.5" transform="matrix(-1 0 0 1 40.9672 34)" stroke="url(#paint4_linear_19874_49)" stroke-width="3" stroke-linecap="round"/>
<line x1="20.6475" y1="50.8333" x2="11.5492" y2="50.8333" stroke="url(#paint5_linear_19874_49)" stroke-width="3" stroke-linecap="round"/>
<rect width="41" height="59" rx="5" fill="url(#paint6_linear_19874_49)" fill-opacity="0.5"/>
<g clip-path="url(#clip0_19874_49)">
<path d="M35.3868 47.0948C35.7596 46.9409 36.1582 47.0072 36.5099 47.0655C36.686 47.0947 36.8528 47.122 37.004 47.1222H37.006C37.1665 47.1222 37.3385 47.0951 37.5206 47.0665C37.886 47.0091 38.2643 46.9495 38.6212 47.0978C38.9779 47.246 39.2019 47.5563 39.4191 47.8556C39.5277 48.0053 39.6305 48.1469 39.7442 48.2609C39.8511 48.3679 39.9889 48.4663 40.1339 48.5704C40.3871 48.7524 40.6701 48.9555 40.8399 49.253L40.9054 49.3868C41.0593 49.7595 40.993 50.1583 40.9347 50.5099C40.9055 50.686 40.8782 50.8528 40.878 51.004C40.8778 51.1651 40.905 51.3378 40.9337 51.5206C40.9911 51.886 41.0497 52.2643 40.9015 52.6212C40.7532 52.9777 40.4438 53.202 40.1446 53.4191C39.9949 53.5277 39.8533 53.6305 39.7394 53.7443C39.6324 53.8511 39.534 53.9889 39.4298 54.1339C39.2218 54.4233 38.986 54.7514 38.6134 54.9054C38.4424 54.976 38.2657 55.0001 38.0909 55.0001C37.8848 55.0001 37.6806 54.9662 37.4903 54.9347C37.3142 54.9055 37.1474 54.8782 36.9962 54.878H36.9942C36.8337 54.8781 36.6617 54.9051 36.4796 54.9337C36.1142 54.9911 35.7359 55.0507 35.379 54.9025C35.0223 54.7542 34.7983 54.4439 34.5812 54.1446C34.4725 53.9949 34.3697 53.8533 34.256 53.7394C34.1491 53.6323 34.0113 53.534 33.8663 53.4298C33.5769 53.2218 33.2488 52.986 33.0948 52.6134C32.9409 52.2407 33.0072 51.842 33.0655 51.4903C33.0947 51.3142 33.122 51.1474 33.1222 50.9962C33.1224 50.8351 33.0952 50.6625 33.0665 50.4796C33.0091 50.1142 32.9495 49.7359 33.0978 49.379C33.246 49.0223 33.5563 48.7983 33.8556 48.5812C34.0053 48.4725 34.1469 48.3697 34.2608 48.256C34.3678 48.1491 34.4663 48.0113 34.5704 47.8663C34.7784 47.5769 35.0142 47.2488 35.3868 47.0948ZM39.0441 49.2872C39.4327 49.7506 39.6671 50.3481 39.6671 51.0001C39.6671 52.473 38.473 53.6671 37.0001 53.6671C36.3481 53.6671 35.7505 53.4327 35.2872 53.0441L34.9552 53.3771C35.2019 53.5898 35.4782 53.7614 35.7794 53.8888C36.1663 54.0524 36.577 54.1359 37.0001 54.1359C37.4232 54.1359 37.8339 54.0524 38.2208 53.8888C38.594 53.7309 38.9292 53.5054 39.2169 53.2179C39.5047 52.9301 39.7308 52.5942 39.8888 52.2208C40.0524 51.8339 40.1359 51.4232 40.1358 51.0001C40.1358 50.577 40.0524 50.1663 39.8888 49.7794C39.7614 49.4782 39.5898 49.2019 39.3771 48.9552L39.0441 49.2872ZM37.0001 47.8644C36.577 47.8644 36.1663 47.9478 35.7794 48.1114C35.406 48.2694 35.0711 48.4955 34.7833 48.7833C34.4955 49.0711 34.2694 49.406 34.1114 49.7794C33.9478 50.1663 33.8644 50.577 33.8644 51.0001C33.8644 51.4232 33.9478 51.8339 34.1114 52.2208C34.2389 52.5222 34.4103 52.7993 34.6232 53.046L34.9562 52.713C34.5675 52.2497 34.3331 51.6522 34.3331 51.0001C34.3331 49.5272 35.5272 48.3331 37.0001 48.3331C37.6521 48.3331 38.2497 48.5676 38.713 48.9562L39.045 48.6232C38.7984 48.4105 38.522 48.2389 38.2208 48.1114C37.8339 47.9478 37.4232 47.8644 37.0001 47.8644Z" fill="url(#paint7_linear_19874_49)"/>
</g>
<defs>
<linearGradient id="paint0_linear_19874_49" x1="12.8431" y1="4" x2="45" y2="4" gradientUnits="userSpaceOnUse">
<stop stop-color="#E1D8FF"/>
<stop offset="1" stop-color="#F4ECFF"/>
</linearGradient>
<linearGradient id="paint1_linear_19874_49" x1="2.68852" y1="0" x2="27.2213" y2="0" gradientUnits="userSpaceOnUse">
<stop stop-color="#BBA6FF"/>
<stop offset="1" stop-color="#CDBBEF"/>
</linearGradient>
<linearGradient id="paint2_linear_19874_49" x1="2.68852" y1="0" x2="27.2213" y2="0" gradientUnits="userSpaceOnUse">
<stop stop-color="#BBA6FF"/>
<stop offset="1" stop-color="#CDBBEF"/>
</linearGradient>
<linearGradient id="paint3_linear_19874_49" x1="2.68852" y1="0" x2="27.2213" y2="0" gradientUnits="userSpaceOnUse">
<stop stop-color="#BBA6FF"/>
<stop offset="1" stop-color="#CDBBEF"/>
</linearGradient>
<linearGradient id="paint4_linear_19874_49" x1="2.68852" y1="0" x2="27.2213" y2="0" gradientUnits="userSpaceOnUse">
<stop stop-color="#BBA6FF"/>
<stop offset="1" stop-color="#CDBBEF"/>
</linearGradient>
<linearGradient id="paint5_linear_19874_49" x1="21.0955" y1="49.3333" x2="11.4957" y2="49.3333" gradientUnits="userSpaceOnUse">
<stop stop-color="#BBA6FF"/>
<stop offset="1" stop-color="#CDBBEF"/>
</linearGradient>
<linearGradient id="paint6_linear_19874_49" x1="8.84314" y1="0" x2="41" y2="0" gradientUnits="userSpaceOnUse">
<stop stop-color="#E1D8FF"/>
<stop offset="1" stop-color="#F4ECFF"/>
</linearGradient>
<linearGradient id="paint7_linear_19874_49" x1="37" y1="47" x2="37" y2="55" gradientUnits="userSpaceOnUse">
<stop stop-color="#4614E8"/>
<stop offset="1" stop-color="#BCA7FF"/>
</linearGradient>
<clipPath id="clip0_19874_49">
<rect width="8" height="8" fill="white" transform="translate(33 47)"/>
</clipPath>
</defs>
</svg>
